<?xml version="1.0" encoding="UTF-8"?>
<svg id="_Слой_2" data-name="Слой 2" xmlns="http://www.w3.org/2000/svg" viewBox="0 0 1474.11 275">
  <defs>
    <style>
      .cls-1 {
        fill: #00b2fe;
      }

      .cls-2 {
        fill: #09161f;
      }
    </style>
  </defs>
  <g id="_Слой_1-2" data-name="Слой 1">
    <g>
      <path class="cls-2" d="M1251.53,175.69c-10.01,10.36-24.03,16.81-39.53,16.81-30.33,0-55-24.67-55-55s24.67-55,55-55c15.16,0,28.92,6.17,38.87,16.13l21.23-21.23c-15.38-15.38-36.63-24.9-60.1-24.9-46.94,0-85,38.06-85,85s38.06,85,85,85c23.48,0,44.73-9.52,60.11-24.9l-21.23-21.23c.22-.22.44-.45.65-.68ZM1251.7,175.52c-.05.06-.11.11-.17.17.06-.06.11-.11.17-.17Z"/>
      <path class="cls-2" d="M808,52.5c-46.94,0-85,38.06-85,85s38.06,85,85,85,85-38.05,85-85-38.06-85-85-85ZM808,192.5c-30.33,0-55-24.67-55-55s24.67-55,55-55,55,24.68,55,55-24.67,55-55,55Z"/>
      <path class="cls-2" d="M691,52.5v30c-30.33,0-55,24.68-55,55v85h-30V52.5h30v20.21c14.82-12.61,34.03-20.21,55-20.21Z"/>
      <path class="cls-2" d="M287,52.5c-20.97,0-40.18,7.6-55,20.21v-20.21h-30v222.5h30v-72.7c14.82,12.6,34.03,20.2,55,20.2,46.94,0,85-38.05,85-85s-38.06-85-85-85ZM287,192.5c-30.33,0-55-24.67-55-55s24.67-55,55-55,55,24.68,55,55-24.67,55-55,55Z"/>
      <path class="cls-2" d="M489,52.5c-20.97,0-40.18,7.6-55,20.21v-20.21h-30v222.5h30v-72.7c14.82,12.6,34.03,20.2,55,20.2,46.94,0,85-38.05,85-85s-38.06-85-85-85ZM489,192.5c-30.33,0-55-24.67-55-55s24.67-55,55-55,55,24.68,55,55-24.67,55-55,55Z"/>
      <g>
        <path class="cls-1" d="M85,52.5v30c-30.33,0-55,24.68-55,55H0C0,90.56,38.06,52.5,85,52.5Z"/>
        <path class="cls-2" d="M170,137.5v85h-30v-20.2c-14.82,12.6-34.03,20.2-55,20.2C38.06,222.5,0,184.45,0,137.5h30c0,30.33,24.67,55,55,55s55-24.67,55-55-24.67-55-55-55v-30c46.94,0,85,38.06,85,85Z"/>
      </g>
      <path class="cls-2" d="M1474.11,137.5v85h-30v-85c0-30.32-24.67-55-55-55s-55,24.68-55,55v85h-30V0h30v72.71c14.82-12.61,34.03-20.21,55-20.21s40.18,7.6,55,20.21c18.35,15.58,30,38.82,30,64.79Z"/>
      <path class="cls-2" d="M1010,52.5c-46.94,0-85,38.06-85,85s38.06,85,85,85c20.97,0,40.18-7.6,55-20.2v20.2h30v-85c0-46.94-38.06-85-85-85ZM1010,192.5c-30.33,0-55-24.67-55-55s24.67-55,55-55,55,24.68,55,55-24.67,55-55,55Z"/>
    </g>
  </g>
</svg>