<?xml version="1.0" encoding="UTF-8"?>
<svg id="_Слой_1" data-name="Слой_1" xmlns="http://www.w3.org/2000/svg" version="1.1" xmlns:xlink="http://www.w3.org/1999/xlink" viewBox="0 0 64 64">
  <!-- Generator: Adobe Illustrator 30.4.0, SVG Export Plug-In . SVG Version: 2.1.4 Build 226)  -->
  <defs>
    <style>
      .st0 {
        fill: url(#_Безымянный_градиент_4);
      }

      .st1 {
        fill: #d9eeff;
      }

      .st2 {
        fill: none;
        stroke: #08f;
        stroke-linejoin: round;
        stroke-width: 3px;
      }
    </style>
    <linearGradient id="_Безымянный_градиент_4" data-name="Безымянный градиент 4" x1="32" y1="13" x2="32" y2="52" gradientUnits="userSpaceOnUse">
      <stop offset="0" stop-color="#08f"/>
      <stop offset="1" stop-color="#000"/>
    </linearGradient>
  </defs>
  <path class="st0" d="M8,18.5c0-3.02,2.48-5.5,5.5-5.5h9.74c1.13,0,2.21.45,3.01,1.25l2.51,2.51c.8.8,1.88,1.25,3.01,1.25h18.74c3.02,0,5.5,2.48,5.5,5.5v22c0,3.59-2.91,6.5-6.5,6.5H14.5c-3.59,0-6.5-2.91-6.5-6.5v-27Z"/>
  <path class="st1" d="M8.5,25h47v20.5c0,3.3-2.7,6-6,6H14.5c-3.3,0-6-2.7-6-6v-20.5Z"/>
  <path class="st2" d="M8,24.5h48v21c0,3.6-2.9,6.5-6.5,6.5H14.5c-3.6,0-6.5-2.9-6.5-6.5v-21Z"/>
</svg>