<svg width="47" height="30" viewBox="0 0 47 30" fill="none" xmlns="http://www.w3.org/2000/svg">
<path d="M13.55 2.5743L3.9313 29.0557H0L11.0755 0H13.6099L13.55 2.5743ZM21.6122 29.0557L11.9735 2.5743L11.9136 0H14.448L25.5634 29.0557H21.6122ZM21.1133 18.2995V21.4525H4.7894V18.2995H21.1133Z" fill="#434247"/>
<path d="M41.6279 25.3639V14.2485C41.6279 13.397 41.4549 12.6587 41.109 12.0334C40.7764 11.3948 40.2709 10.9025 39.5924 10.5566C38.9139 10.2107 38.0757 10.0378 37.078 10.0378C36.1467 10.0378 35.3285 10.1974 34.6234 10.5167C33.9316 10.836 33.3861 11.2551 32.987 11.7739C32.6012 12.2928 32.4083 12.8516 32.4083 13.4502H28.7165C28.7165 12.6786 28.916 11.9136 29.3151 11.1553C29.7142 10.397 30.2863 9.71184 31.0313 9.09986C31.7897 8.47458 32.6943 7.98234 33.7453 7.62313C34.8096 7.25062 35.9937 7.06437 37.2975 7.06437C38.8673 7.06437 40.2509 7.33045 41.4483 7.8626C42.6589 8.39476 43.6035 9.19964 44.282 10.2773C44.9738 11.3416 45.3197 12.6786 45.3197 14.2884V24.3461C45.3197 25.0645 45.3796 25.8295 45.4993 26.641C45.6324 27.4526 45.8253 28.151 46.078 28.7364V29.0557H42.2266C42.0403 28.63 41.894 28.0646 41.7875 27.3595C41.6811 26.641 41.6279 25.9759 41.6279 25.3639ZM42.2665 15.9647L42.3064 18.5589H38.5746C37.5236 18.5589 36.5857 18.6454 35.7609 18.8184C34.936 18.978 34.2442 19.2241 33.6855 19.5567C33.1267 19.8893 32.701 20.3084 32.4083 20.8139C32.1156 21.3062 31.9693 21.8849 31.9693 22.5501C31.9693 23.2286 32.1223 23.8472 32.4282 24.406C32.7342 24.9648 33.1932 25.4104 33.8052 25.743C34.4305 26.0623 35.1955 26.222 36.1001 26.222C37.2309 26.222 38.2287 25.9825 39.0935 25.5036C39.9582 25.0246 40.6434 24.4393 41.1489 23.7475C41.6678 23.0556 41.9472 22.3838 41.9871 21.7319L43.5636 23.508C43.4705 24.0667 43.2177 24.6854 42.8053 25.3639C42.3929 26.0424 41.8407 26.6943 41.1489 27.3195C40.4704 27.9315 39.6589 28.4437 38.7143 28.8561C37.7831 29.2553 36.7321 29.4548 35.5613 29.4548C34.0979 29.4548 32.8141 29.1688 31.7098 28.5967C30.6189 28.0247 29.7675 27.2597 29.1555 26.3018C28.5568 25.3306 28.2575 24.2463 28.2575 23.049C28.2575 21.8916 28.4836 20.8738 28.936 19.9958C29.3883 19.1044 30.0402 18.366 30.8916 17.7807C31.7431 17.182 32.7675 16.7296 33.9648 16.4237C35.1622 16.1177 36.4992 15.9647 37.976 15.9647H42.2665Z" fill="#434247"/>
</svg>
