<svg width="44" height="45" viewBox="0 0 44 45" fill="none" xmlns="http://www.w3.org/2000/svg">
<path d="M7.2168 0.175781V14.4238H4.4043V3.41797L1.02539 4.49219V2.27539L6.91406 0.175781H7.2168Z" fill="#00B2FE"/>
<path d="M43.5332 12.2266V14.4238H33.8066V12.5488L38.4062 7.61719C38.8685 7.10286 39.2331 6.65039 39.5 6.25977C39.7669 5.86263 39.959 5.50781 40.0762 5.19531C40.1999 4.8763 40.2617 4.57357 40.2617 4.28711C40.2617 3.85742 40.1901 3.48958 40.0469 3.18359C39.9036 2.87109 39.6921 2.63021 39.4121 2.46094C39.1387 2.29167 38.8001 2.20703 38.3965 2.20703C37.9668 2.20703 37.5957 2.3112 37.2832 2.51953C36.9772 2.72786 36.7428 3.01758 36.5801 3.38867C36.4238 3.75977 36.3457 4.17969 36.3457 4.64844H33.5234C33.5234 3.80208 33.7253 3.02734 34.1289 2.32422C34.5326 1.61458 35.1022 1.05143 35.8379 0.634766C36.5736 0.211589 37.446 0 38.4551 0C39.4512 0 40.291 0.16276 40.9746 0.488281C41.6647 0.807292 42.1855 1.26953 42.5371 1.875C42.8952 2.47396 43.0742 3.1901 43.0742 4.02344C43.0742 4.49219 42.9993 4.95117 42.8496 5.40039C42.6999 5.8431 42.485 6.28581 42.2051 6.72852C41.9316 7.16471 41.5996 7.60742 41.209 8.05664C40.8184 8.50586 40.3854 8.97135 39.9102 9.45312L37.4395 12.2266H43.5332Z" fill="#00B2FE"/>
<path d="M3.24219 36.0938H4.74609C5.22786 36.0938 5.625 36.0124 5.9375 35.8496C6.25 35.6803 6.48112 35.446 6.63086 35.1465C6.78711 34.8405 6.86523 34.4857 6.86523 34.082C6.86523 33.7174 6.79362 33.3952 6.65039 33.1152C6.51367 32.8288 6.30208 32.6074 6.01562 32.4512C5.72917 32.2884 5.36784 32.207 4.93164 32.207C4.58659 32.207 4.26758 32.2754 3.97461 32.4121C3.68164 32.5488 3.44727 32.7409 3.27148 32.9883C3.0957 33.2357 3.00781 33.5352 3.00781 33.8867H0.185547C0.185547 33.1055 0.39388 32.4251 0.810547 31.8457C1.23372 31.2663 1.80013 30.8138 2.50977 30.4883C3.2194 30.1628 4.00065 30 4.85352 30C5.81706 30 6.66016 30.1562 7.38281 30.4688C8.10547 30.7747 8.66862 31.2272 9.07227 31.8262C9.47591 32.4251 9.67773 33.1673 9.67773 34.0527C9.67773 34.502 9.57357 34.9382 9.36523 35.3613C9.1569 35.778 8.85742 36.1556 8.4668 36.4941C8.08268 36.8262 7.61393 37.0931 7.06055 37.2949C6.50716 37.4902 5.88542 37.5879 5.19531 37.5879H3.24219V36.0938ZM3.24219 38.2324V36.7773H5.19531C5.97005 36.7773 6.65039 36.8652 7.23633 37.041C7.82227 37.2168 8.3138 37.4707 8.71094 37.8027C9.10807 38.1283 9.40755 38.5156 9.60938 38.9648C9.8112 39.4076 9.91211 39.8991 9.91211 40.4395C9.91211 41.1035 9.78516 41.696 9.53125 42.2168C9.27734 42.7311 8.91927 43.1673 8.45703 43.5254C8.0013 43.8835 7.46745 44.1569 6.85547 44.3457C6.24349 44.528 5.57617 44.6191 4.85352 44.6191C4.25456 44.6191 3.66536 44.5378 3.08594 44.375C2.51302 44.2057 1.99219 43.9551 1.52344 43.623C1.0612 43.2845 0.690104 42.8613 0.410156 42.3535C0.136719 41.8392 0 41.2305 0 40.5273H2.82227C2.82227 40.8919 2.91341 41.2174 3.0957 41.5039C3.27799 41.7904 3.52865 42.015 3.84766 42.1777C4.17318 42.3405 4.53451 42.4219 4.93164 42.4219C5.38086 42.4219 5.76497 42.3405 6.08398 42.1777C6.40951 42.0085 6.6569 41.7741 6.82617 41.4746C7.00195 41.1686 7.08984 40.8138 7.08984 40.4102C7.08984 39.8893 6.99544 39.4727 6.80664 39.1602C6.61784 38.8411 6.34766 38.6068 5.99609 38.457C5.64453 38.3073 5.22786 38.2324 4.74609 38.2324H3.24219Z" fill="#00B2FE"/>
<path d="M43.7676 39.1113V41.3184H33.5234L33.3867 39.6094L39.3145 30.2051H41.5508L39.1289 34.2578L36.1797 39.1113H43.7676ZM42.1562 30.2051V44.4238H39.3438V30.2051H42.1562Z" fill="#00B2FE"/>
</svg>
