<svg width="48" height="44" viewBox="0 0 48 44" fill="none" xmlns="http://www.w3.org/2000/svg">
<rect x="14" y="14" width="20" height="4" rx="2" fill="#00B2FE"/>
<rect x="14" y="22" width="20" height="4" rx="2" fill="#00B2FE"/>
<path d="M24 2C36.5526 2 46 10.2233 46 19.5557C45.9999 28.8879 36.5525 37.1113 24 37.1113C22.2819 37.1113 19.5196 37.217 16.5732 37.7812C15.0386 38.0752 13.4057 38.5032 11.8232 39.1309C11.8585 38.9629 11.8918 38.7953 11.9189 38.6279C12.1822 37.0013 12.1339 34.7075 10.2373 33.248L10.1094 33.1582L9.6416 32.8447C4.86868 29.5553 2.00004 24.7599 2 19.5557C2 10.2233 11.4474 2 24 2Z" stroke="#00B2FE" stroke-width="1.5" stroke-linecap="round" stroke-linejoin="round"/>
</svg>
